<?xml version="1.0" encoding="UTF-8" standalone="no"?>
<!-- Created with Inkscape (http://www.inkscape.org/) -->

<svg
   width="167.37738mm"
   height="167.37756mm"
   viewBox="0 0 167.37738 167.37756"
   version="1.1"
   id="svg1"
   xml:space="preserve"
   xmlns="http://www.w3.org/2000/svg"
   xmlns:svg="http://www.w3.org/2000/svg"><defs
     id="defs1"><style
       id="style1">.cls-1{fill-rule:evenodd;}</style></defs><g
     id="layer1"
     transform="translate(-294.62426,-445.57249)"><path
       d="m 372.0588,445.80653 a 83.68862,83.68862 0 0 0 -77.43455,83.45486 83.68869,83.68869 0 0 0 167.37738,0 83.68862,83.68862 0 0 0 -89.94283,-83.45486 z m 4.67568,16.72612 a 47.320204,47.320204 0 0 0 -1.56424,11.51247 c 0.16297,7.02691 3.4538,10.26331 8.26513,18.89756 6.95085,12.51157 3.58389,24.61066 -5.65857,34.59168 3.32336,-11.14309 4.88746,-18.30036 2.40037,-26.47848 a 36.926484,36.926484 0 0 0 -2.97605,-6.75566 c -3.10618,-5.65844 -6.51614,-10.32832 -6.17947,-17.15968 a 22.60118,22.60118 0 0 1 1.22732,-6.2668 h -0.0543 a 29.13934,29.13934 0 0 1 4.53977,-8.34109 z m -9.59011,16.58451 c -1.15125,7.60251 -0.14151,9.94848 2.35645,13.52166 2.7695,3.95329 5.10455,7.03782 5.78879,10.91509 0.95577,5.43038 -1.53113,11.25178 -4.83278,15.44402 5.16969,-25.43583 -14.5099,-19.45174 -3.31246,-39.88077 z m -1.80299,32.28899 a 29.215365,29.215365 0 0 1 -0.36949,4.72426 70.996593,70.996593 0 0 0 -13.74954,2.43292 c -4.52891,1.32504 -7.60257,2.85652 -8.35195,4.34444 l -0.16278,0.99891 c 0.30417,1.65085 3.4971,3.36709 8.51473,4.83329 a 89.970291,89.970291 0 0 0 24.19749,2.91042 90.024593,90.024593 0 0 0 24.14323,-2.86701 c 5.02851,-1.46617 8.23283,-3.19331 8.52609,-4.84415 l -0.0977,-0.80357 c -0.60821,-1.56395 -3.71437,-3.16046 -8.42791,-4.53977 a 65.718279,65.718279 0 0 0 -8.4062,-1.79214 30.410045,30.410045 0 0 0 1.30328,-4.53977 69.367484,69.367484 0 0 1 8.68835,1.8898 c 5.95169,1.74854 10.1114,4.20309 11.58844,7.12463 a 2.617436,2.617436 0 0 1 0.35812,0.90176 5.1045435,5.1045435 0 0 1 0.23926,1.50947 v 0.36948 c 0.19539,1.85715 0.32561,3.68159 0.41238,5.43016 5.43034,-1.71598 9.54644,-1.08586 12.44627,1.01028 a 11.316881,11.316881 0 0 1 4.49637,8.30853 18.57185,18.57185 0 0 1 -2.02003,10.06761 c -3.35597,6.73363 -10.77368,12.70721 -22.17746,12.72893 -0.40187,0.71683 -0.82542,1.41179 -1.25987,2.08515 a 48.199921,48.199921 0 0 1 12.75064,5.03948 c 4.27914,2.6283 6.70088,5.81023 6.70088,9.38341 0,5.43038 -5.92996,10.15501 -15.51998,13.27206 -8.6886,2.84553 -20.70035,4.60489 -33.88527,4.60489 -13.18496,0 -25.18634,-1.75936 -33.89664,-4.60489 -9.57919,-3.11705 -15.50913,-7.79825 -15.50913,-13.27206 0,-3.57318 2.42227,-6.75511 6.7014,-9.38341 a 48.460578,48.460578 0 0 1 13.09791,-5.1263 57.561873,57.561873 0 0 1 -7.71116,-19.19107 55.053043,55.053043 0 0 1 -1.22731,-11.04533 59.972955,59.972955 0 0 1 0.62993,-9.50277 v -0.20671 a 5.3108973,5.3108973 0 0 1 0.33641,-1.8247 h 5.2e-4 a 2.6391575,2.6391575 0 0 1 0.58653,-1.15135 c 1.7051,-2.67172 5.69081,-4.93072 11.25151,-6.51639 a 79.38108,79.38108 0 0 1 15.80265,-2.75849 z"
       style="fill:#2aff2a;stroke-width:0.163454"
       id="path22" /></g></svg>
