<?xml version="1.0" encoding="UTF-8" standalone="no"?>
<!-- Created with Inkscape (http://www.inkscape.org/) -->

<svg
   width="168.39857mm"
   height="168.43756mm"
   viewBox="0 0 168.39857 168.43756"
   version="1.1"
   id="svg1"
   xml:space="preserve"
   xmlns="http://www.w3.org/2000/svg"
   xmlns:svg="http://www.w3.org/2000/svg"><defs
     id="defs1" /><g
     id="layer1"
     transform="translate(-344.77908,-82.439696)"><path
       id="path1-5"
       style="fill:#2aff2a;fill-opacity:1;stroke-width:0.163454"
       d="m 430.70277,82.460237 c -1.7584,-0.03917 -3.51771,-0.02434 -5.27462,0.06201 -1.05035,0.05579 -2.10036,0.111641 -3.15071,0.167432 -2.82652,0.270147 -5.6421,0.61412 -8.43721,1.118278 -3.35803,0.630676 -6.68578,1.437003 -9.9472,2.457214 -3.64689,1.147216 -7.22258,2.520858 -10.67945,4.155302 -2.92651,1.351121 -5.74729,2.921316 -8.50336,4.591451 -2.89719,1.810303 -5.70129,3.773957 -8.36744,5.910756 -2.98089,2.39424 -5.80736,4.97936 -8.43205,7.76025 -2.25932,2.34607 -4.3293,4.86591 -6.30969,7.45019 -2.04764,2.77647 -3.97435,5.64867 -5.6751,8.65167 -1.9039,3.31564 -3.57519,6.76189 -5.00745,10.30686 -1.22506,2.98117 -2.21976,6.05073 -3.11196,9.14673 -0.88241,3.33498 -1.63648,6.71034 -2.12183,10.12755 -0.56534,3.78184 -0.85214,7.60106 -0.89814,11.4241 -0.0497,3.25591 0.15287,6.50862 0.447,9.75031 0.33608,2.90506 0.79214,5.79246 1.38132,8.65736 0.65243,2.98712 1.46326,5.93444 2.38693,8.84907 0.94473,2.76702 1.99673,5.49349 3.1781,8.16849 1.26924,2.78154 2.68446,5.49091 4.20336,8.14421 1.50798,2.50553 3.11306,4.94872 4.8333,7.31428 1.81255,2.41996 3.73971,4.74899 5.76502,6.99441 2.06399,2.21043 4.23144,4.31784 6.48333,6.33656 2.24399,1.92633 4.56549,3.75533 6.9665,5.48235 2.48278,1.726 5.04878,3.32362 7.6755,4.82141 2.5737,1.38927 5.194,2.6843 7.87807,3.84731 2.79028,1.16621 5.63383,2.19241 8.51938,3.09801 2.86898,0.84451 5.77121,1.56162 8.70437,2.14663 2.94306,0.53233 5.90446,0.93621 8.88318,1.20768 3.0346,0.23022 6.07598,0.29993 9.11883,0.25735 2.86991,-0.11085 5.73248,-0.32141 8.58293,-0.67696 3.48145,-0.48524 6.95037,-1.11088 10.34821,-2.02003 3.70491,-0.9493 7.33459,-2.1749 10.87427,-3.62149 3.16185,-1.2968 6.23508,-2.80633 9.22321,-4.46329 3.31893,-1.89671 6.54478,-3.96182 9.57668,-6.29315 2.87669,-2.13831 5.5621,-4.52395 8.14524,-7.00578 2.65226,-2.65838 5.19608,-5.43125 7.47396,-8.41964 2.19666,-2.75548 4.13339,-5.70687 5.96759,-8.71316 1.52603,-2.61166 2.92285,-5.29414 4.20285,-8.03517 1.21883,-2.73047 2.30993,-5.51315 3.27887,-8.34213 0.90708,-2.81488 1.69793,-5.6635 2.35128,-8.54831 0.82144,-3.93148 1.4565,-7.90831 1.71255,-11.91969 0.29291,-3.4784 0.26527,-6.97484 0.13746,-10.46086 -0.17848,-2.95184 -0.47759,-5.89243 -0.91932,-8.81703 -0.49228,-2.9829 -1.12779,-5.93852 -1.88929,-8.86458 -1.08522,-3.83259 -2.34041,-7.62323 -3.94808,-11.27114 -1.30716,-3.12825 -2.87812,-6.13847 -4.55476,-9.08317 -1.7337,-2.94431 -3.61698,-5.80543 -5.68648,-8.52506 -2.31509,-3.04266 -4.82032,-5.93975 -7.52977,-8.63823 -2.28423,-2.3219 -4.74842,-4.45852 -7.27863,-6.50762 -2.40476,-1.886617 -4.90625,-3.643296 -7.47861,-5.29425 -2.51796,-1.550805 -5.09808,-2.993754 -7.74475,-4.313949 -3.11174,-1.489035 -6.28936,-2.853454 -9.55755,-3.962548 -3.61124,-1.258442 -7.31126,-2.250496 -11.06031,-3.002401 -3.12604,-0.633413 -6.29145,-1.045099 -9.46609,-1.345138 -1.75345,-0.128321 -3.51105,-0.22128 -5.26944,-0.260449 z M 359.2694,153.01769 h 140.54129 v 34.53484 H 359.2694 v -34.00568 z" /></g></svg>
